# xmcd
#
# Track frame offsets: 
#        150
#        15748
#        33014
#        47024
#        62257
#        80098
#        92730
#        107954
#        121246
#        137447
#        154040
#        170008
#
# Disc length: 2473 seconds
#
# Revision: 0
# Processed by: cddbd v1.5.2PL0 Copyright (c) Steve Scherf et al.
# Submitted via: ExactAudioCopy v0.95b4
#
DISCID=8f09a70c
DTITLE=Granger Smith - Dirt Road Driveway
DYEAR=2013
DGENRE=Country
TTITLE0=We Do It In A Field
TTITLE1=If Money Didn't Matter
TTITLE2=Stick Around
TTITLE3=19 Forever
TTITLE4=I Am The Midnight
TTITLE5=Miles And Mud Tires
TTITLE6=Come
TTITLE7=Silverado Bench Seat
TTITLE8=Easy
TTITLE9=Bury Me In Blue Jeans
TTITLE10=Country Boy Love (feat. Earl Dibbles Jr)
TTITLE11=The Country Boy Song (feat. Earl Dibbles Jr)
EXTD=
EXTT0=
EXTT1=
EXTT2=
EXTT3=
EXTT4=
EXTT5=
EXTT6=
EXTT7=
EXTT8=
EXTT9=
EXTT10=
EXTT11=
PLAYORDER=
